<svg width="169" height="169" viewBox="0 0 169 169" fill="none" xmlns="http://www.w3.org/2000/svg">
<rect width="169" height="169" rx="6" fill="#292929"/>
<path d="M35.5 67.75C32.3333 66.5 30.25 64.875 29.25 62.875C31.625 58.375 33.2083 55.3542 34 53.8125C34.8333 52.2708 35.7708 49.9167 36.8125 46.75C37.8958 43.5417 38.6458 40.3125 39.0625 37.0625H82.375H134.438C135.479 45.2292 138.729 53.8333 144.188 62.875C143.229 64.875 141 66.5 137.5 67.75C134.083 61.5417 129.042 56.375 122.375 52.25C115.75 48.0833 107.146 46 96.5625 46C96.2292 56.3333 96.0625 68.5833 96.0625 82.75C96.0625 100.833 96.2708 114.021 96.6875 122.312C96.7708 123.854 101.417 125.083 110.625 126C111.333 128.667 111.25 131.354 110.375 134.062C96.875 133.729 89.0208 133.562 86.8125 133.562C83.4792 133.562 74.1458 133.729 58.8125 134.062C57.7708 131.188 57.7708 128.5 58.8125 126C67.8542 125.083 72.4167 123.896 72.5 122.438C72.9167 111.938 73.125 98.7083 73.125 82.75C73.125 69.4167 72.9583 57.2917 72.625 46.375C55.2917 48.625 42.9167 55.75 35.5 67.75ZM53.1875 43.8125L75.0625 43.1875C75.4792 57.0208 75.6875 70.2083 75.6875 82.75C75.6875 98.875 75.4792 112.104 75.0625 122.438C74.9792 125.521 70.1458 127.521 60.5625 128.438C60.2292 129.104 60.2292 130.083 60.5625 131.375C67.6458 131.125 74.9167 131 82.375 131C91.25 131 99.7708 131.125 107.938 131.375C108.271 130.625 108.271 129.646 107.938 128.438C94.1042 127.604 87.1458 125.604 87.0625 122.438C86.6458 108.604 86.4375 95.375 86.4375 82.75C86.4375 66.7083 86.6458 53.5208 87.0625 43.1875L96.6875 43.4375C117.438 43.9375 131.438 50.9792 138.688 64.5625C139.771 64.1458 140.479 63.5833 140.812 62.875C136.646 54.375 131.979 48.375 126.812 44.875C121.646 41.375 113.958 39.625 103.75 39.625H82.375C77.8333 39.625 70.9792 39.6042 61.8125 39.5625C52.6458 39.5208 45.8333 39.5 41.375 39.5C41.2083 40.9167 40.9167 42.3958 40.5 43.9375C40.0833 45.4792 39.6875 46.7917 39.3125 47.875C38.9792 48.9167 38.3958 50.3125 37.5625 52.0625C36.7708 53.8125 36.2292 55 35.9375 55.625C35.6458 56.2083 34.9792 57.5 33.9375 59.5C32.9375 61.5 32.3542 62.625 32.1875 62.875C32.5208 63.5833 33.25 64.1458 34.375 64.5625C37.3333 59.6875 39.625 56.0833 41.25 53.75C42.875 51.4167 44.7917 49.1875 47 47.0625C49.25 44.8958 51.3125 43.8125 53.1875 43.8125Z" fill="#FF0000"/>
</svg>
